<svg xmlns="http://www.w3.org/2000/svg" viewBox="0 0 400 500" role="img" aria-label="Cathy celebrating at a tropical waterfall overlook: I made it! Bama 2026, it was worth it">
  <defs>
    <linearGradient id="sky3" x1="0" y1="0" x2="0" y2="1">
      <stop offset="0" stop-color="#7EC8EE"/><stop offset="1" stop-color="#E4F5EC"/>
    </linearGradient>
    <linearGradient id="falls3" x1="0" y1="0" x2="0" y2="1">
      <stop offset="0" stop-color="#fff"/><stop offset="1" stop-color="#8FD2EC"/>
    </linearGradient>
  </defs>
  <rect width="400" height="500" fill="url(#sky3)"/>
  <ellipse cx="320" cy="60" rx="70" ry="20" fill="#fff" opacity=".9"/>
  <path d="M0 190 Q70 120 150 180 T400 170 V300 H0 Z" fill="#2E7D4E"/>
  <path d="M120 175 L200 175 L230 290 L90 290 Z" fill="#6E6259"/>
  <path d="M155 178 L185 178 L178 285 L150 285 Z" fill="url(#falls3)"/>
  <path d="M0 240 Q110 195 220 238 T400 232 V310 H0 Z" fill="#256B43"/>
  <rect x="0" y="262" width="400" height="10" fill="#4A5560"/>
  <rect x="0" y="300" width="400" height="8" fill="#4A5560"/>
  <rect x="36" y="262" width="10" height="110" fill="#39424C"/>
  <rect x="354" y="262" width="10" height="110" fill="#39424C"/>
  <rect x="0" y="320" width="400" height="180" fill="#6B5B4C"/>
  <!-- speech bubble -->
  <g>
    <ellipse cx="290" cy="105" rx="95" ry="48" fill="#FFFDF4" stroke="#4A2F18" stroke-width="4"/>
    <path d="M240 145 L225 175 L258 150z" fill="#FFFDF4" stroke="#4A2F18" stroke-width="4"/>
    <text x="290" y="118" text-anchor="middle" font-family="Georgia,serif" font-size="34" font-style="italic" font-weight="bold" fill="#4A2F18">I made it!</text>
  </g>
  <!-- Cathy -->
  <g>
    <rect x="150" y="330" width="34" height="70" rx="12" fill="#F2C39B"/>
    <rect x="216" y="330" width="34" height="70" rx="12" fill="#F2C39B"/>
    <ellipse cx="167" cy="408" rx="22" ry="14" fill="#333"/>
    <ellipse cx="233" cy="408" rx="22" ry="14" fill="#333"/>
    <path d="M150 250 Q200 236 250 250 L258 335 Q200 348 142 335 Z" fill="#F7F3E8" stroke="#D8D2C0" stroke-width="3"/>
    <!-- little elephant on tee -->
    <ellipse cx="200" cy="295" rx="16" ry="12" fill="#9AA3B2"/>
    <circle cx="212" cy="288" r="7" fill="#9AA3B2"/>
    <path d="M188 296 q-8 4 -6 12" stroke="#9AA3B2" stroke-width="5" fill="none" stroke-linecap="round"/>
    <rect x="150" y="300" width="52" height="16" rx="8" fill="#F7F3E8"/>
    <ellipse cx="200" cy="205" rx="36" ry="42" fill="#8A6F5C"/>
    <ellipse cx="200" cy="207" rx="28" ry="34" fill="#F2C39B"/>
    <path d="M172 172 Q200 148 228 172 Q232 208 226 228 Q226 198 200 190 Q174 198 174 228 Q168 208 172 172z" fill="#4A4A52"/>
    <circle cx="190" cy="207" r="3.2" fill="#333"/>
    <circle cx="210" cy="207" r="3.2" fill="#333"/>
    <path d="M190 224 Q200 233 210 224" stroke="#8A4B3A" stroke-width="3.5" fill="none" stroke-linecap="round"/>
    <rect x="214" y="252" width="46" height="62" rx="12" fill="#7B2FBE" stroke="#4E1A82" stroke-width="4"/>
    <path d="M214 252 L196 238" stroke="#E2549A" stroke-width="7" stroke-linecap="round"/>
    <path d="M152 256 Q134 296 142 318" stroke="#F2C39B" stroke-width="14" stroke-linecap="round"/>
    <path d="M248 256 Q286 268 318 262" stroke="#F2C39B" stroke-width="14" stroke-linecap="round"/>
    <rect x="132" y="312" width="20" height="12" rx="6" fill="#fff" stroke="#ccc" stroke-width="2"/>
    <!-- lime bottle in hand -->
    <rect x="312" y="238" width="22" height="56" rx="9" fill="#B8E356" stroke="#5F8F1B" stroke-width="4"/>
    <rect x="315" y="228" width="16" height="12" rx="4" fill="#5F8F1B"/>
  </g>
  <!-- banner -->
  <g>
    <rect x="0" y="430" width="400" height="70" fill="#1E3A2B"/>
    <text x="200" y="460" text-anchor="middle" font-family="Georgia,serif" font-size="27" font-weight="bold" fill="#FFF3D6">Bama 2026: It was worth it.</text>
    <text x="200" y="484" text-anchor="middle" font-size="20" fill="#FFD94D">~ cheese ~</text>
  </g>
</svg>
